<?xml version="1.0" encoding="UTF-8" standalone="no"?>
<!-- Created with Inkscape (http://www.inkscape.org/) -->

<svg
   xmlns:dc="http://purl.org/dc/elements/1.1/"
   xmlns:cc="http://creativecommons.org/ns#"
   xmlns:rdf="http://www.w3.org/1999/02/22-rdf-syntax-ns#"
   xmlns:svg="http://www.w3.org/2000/svg"
   xmlns="http://www.w3.org/2000/svg"
   xmlns:sodipodi="http://sodipodi.sourceforge.net/DTD/sodipodi-0.dtd"
   xmlns:inkscape="http://www.inkscape.org/namespaces/inkscape"
   width="71.62571mm"
   height="71.473282mm"
   viewBox="0 0 253.79188 253.25178"
   id="svg4222"
   version="1.1"
   inkscape:version="0.91 r13725"
   sodipodi:docname="tx_pbconcertlist_domain_model_url.svg">
  <defs
     id="defs4224" />
  <sodipodi:namedview
     id="base"
     pagecolor="#ffffff"
     bordercolor="#666666"
     borderopacity="1.0"
     inkscape:pageopacity="0.0"
     inkscape:pageshadow="2"
     inkscape:zoom="0.35"
     inkscape:cx="134.04047"
     inkscape:cy="148.75181"
     inkscape:document-units="px"
     inkscape:current-layer="layer1"
     showgrid="false"
     fit-margin-top="0"
     fit-margin-left="0"
     fit-margin-right="0"
     fit-margin-bottom="0"
     inkscape:window-width="1920"
     inkscape:window-height="1054"
     inkscape:window-x="1920"
     inkscape:window-y="0"
     inkscape:window-maximized="1" />
  <metadata
     id="metadata4227">
    <rdf:RDF>
      <cc:Work
         rdf:about="">
        <dc:format>image/svg+xml</dc:format>
        <dc:type
           rdf:resource="http://purl.org/dc/dcmitype/StillImage" />
        <dc:title></dc:title>
      </cc:Work>
    </rdf:RDF>
  </metadata>
  <g
     inkscape:label="Ebene 1"
     inkscape:groupmode="layer"
     id="layer1"
     transform="translate(-240.95953,-427.86223)">
    <path
       style="fill:#000000"
       d="m 414.35717,680.01318 c -9.53399,-3.14967 -13.23559,-6.09189 -34.60186,-27.50338 -18.73193,-18.77156 -22.04954,-22.56708 -24.97153,-28.56871 -2.96557,-6.09115 -3.41635,-8.08338 -3.75894,-16.61294 -0.5556,-13.83291 1.89737,-21.63163 10.15725,-32.2928 l 2.96491,-3.82688 -6.36602,-6.42312 c -3.50132,-3.53271 -6.87179,-6.42312 -7.48993,-6.42312 -0.61815,0 -1.98115,0.95837 -3.02889,2.12971 -11.03875,12.34092 -37.3937,14.47777 -53.46148,4.33463 -2.14449,-1.35376 -13.24657,-11.9295 -24.67129,-23.50166 -18.19107,-18.42582 -21.20262,-21.93347 -24.23593,-28.22837 -2.99743,-6.22044 -3.51745,-8.41695 -3.86295,-16.31671 -0.46247,-10.57388 1.31725,-18.29529 5.85855,-25.4176 1.57809,-2.475 10.20711,-11.78495 19.17558,-20.68877 13.88463,-13.78455 17.34487,-16.68054 23.29942,-19.5 6.70718,-3.17584 7.48376,-3.31123 18.99311,-3.31123 11.50438,0 12.28911,0.13663 19,3.30813 6.21855,2.93882 9.41324,5.72971 28.61713,25 18.84058,18.90571 22.05164,22.58827 25,28.67084 3.26917,6.74442 3.38287,7.38299 3.38287,19 0,11.52732 -0.13584,12.30852 -3.30738,19.02103 -1.81907,3.85 -4.72585,8.4687 -6.45952,10.26377 l -3.15213,3.26377 6.88117,6.93431 6.88117,6.9343 3.57834,-2.76808 c 9.42978,-7.29453 17.56506,-10.12807 29.07835,-10.12807 8.57137,0 16.31951,1.95936 23,5.81627 5.53603,3.19617 39.6529,36.49552 45.64829,44.55445 6.26081,8.41572 8.70117,17.09359 8.17704,29.07746 -0.3615,8.26535 -0.82062,10.15725 -4.04955,16.68704 -3.15292,6.37608 -5.91348,9.61133 -20.56327,24.09922 -14.39553,14.23643 -17.95077,17.21869 -23.81698,19.9785 -6.21857,2.92558 -7.92636,3.26936 -17.39553,3.50176 -6.69111,0.16422 -11.95101,-0.22166 -14.5,-1.06375 z m 20.29966,-30.05794 c 1.48519,-0.77385 8.88784,-7.70116 16.45034,-15.39402 14.95663,-15.21446 15.49905,-16.28584 13.20398,-26.0803 -0.61966,-2.64448 -31.54391,-34.54356 -37.30143,-38.4773 -5.45001,-3.72364 -13.20306,-3.9627 -17.55274,-0.54124 l -2.6699,2.10015 3.95023,4.28549 c 4.73066,5.13216 7.11986,9.49343 7.11986,12.99667 0,6.6181 -5.98864,13.86198 -12.46426,15.07681 -4.86201,0.91212 -9.72578,-1.02552 -15.41593,-6.14146 l -4.94939,-4.44992 -2.05893,2.6175 c -1.13241,1.43963 -2.34033,4.11752 -2.68427,5.95088 -1.26523,6.74424 0.91725,10.00506 18.96694,28.33821 9.40821,9.55596 18.45584,18.21678 20.10584,19.24626 3.60566,2.24968 11.42516,2.49105 15.29966,0.47227 z m -108.95937,-110.63696 3.3403,-2.03647 -4.00548,-4.34543 c -7.49457,-8.13066 -8.82152,-13.42659 -5.16165,-20.60053 1.29595,-2.54028 3.41988,-4.66421 5.96016,-5.96016 7.15735,-3.65141 12.47316,-2.32989 20.54059,5.10641 l 4.28549,3.95022 2.01723,-2.56448 c 1.10947,-1.41047 2.31398,-4.32098 2.67668,-6.46781 1.17017,-6.92618 -1.63215,-10.93188 -21.12534,-30.19706 -25.77863,-25.47709 -25.93433,-25.48844 -48.14113,-3.51046 -22.10252,21.87478 -22.15818,21.33712 5.00076,48.30927 10.59966,10.52675 19.9471,19.37872 20.7721,19.67105 3.62908,1.28592 10.63377,0.60037 13.84029,-1.35455 z"
       id="path4295"
       inkscape:connector-curvature="0" />
  </g>
</svg>
